<svg xmlns="http://www.w3.org/2000/svg" width="62" height="62" viewBox="0 0 62 62"><defs><style>.a{fill:#efefef;}.b{fill:#c42126;}.c{fill:#dc3027;}.d{fill:#e73625;}.e{fill:#283991;}</style></defs><g transform="translate(0 5.697)"><path class="a" d="M61.874,215.893H.13C.05,216.8,0,217.71,0,218.635c0,.977.051,1.944.14,2.9H61.862c.089-.954.14-1.921.14-2.9C62,217.71,61.954,216.8,61.874,215.893Z" transform="translate(-0.002 -193.331)"/><path class="a" d="M87.9,49.164h13.777a31.157,31.157,0,0,0-6.066-5.639h-35.8a31.159,31.159,0,0,0-6.066,5.639H87.9Z" transform="translate(-46.712 -43.525)"/><path class="a" d="M51.091,135.349H68.523a30.794,30.794,0,0,0-2.2-5.639H11.034a30.789,30.789,0,0,0-2.2,5.639H51.091Z" transform="translate(-7.679 -118.429)"/><path class="a" d="M51.371,302.072H9.175a30.776,30.776,0,0,0,2.235,5.64H66.539a30.752,30.752,0,0,0,2.235-5.64h-17.4Z" transform="translate(-7.974 -268.23)"/><path class="a" d="M87.876,388.261H54.753a31.166,31.166,0,0,0,6.155,5.639H96.265a31.181,31.181,0,0,0,6.155-5.639H87.876Z" transform="translate(-47.587 -343.138)"/></g><g transform="translate(0.128)"><rect class="b" width="61.723" height="0.001" transform="translate(0.012 33.9)"/><rect class="b" width="55.291" height="0.001" transform="translate(3.227 16.977)"/><rect class="b" width="59.687" height="0.001" transform="translate(1.028 22.617)"/><path class="b" d="M101.78,431.347h35.353l0,0H101.778Z" transform="translate(-88.584 -374.885)"/><path class="b" d="M224.8,0c-.609,0-1.213.022-1.813.056h3.626C226.014.022,225.41,0,224.8,0Z" transform="translate(-193.93)"/><rect class="b" width="61.743" height="0.001" transform="translate(0 28.258)"/></g><path class="c" d="M227.006,473.464l-.188-.007Z" transform="translate(-197.13 -411.485)"/><path class="b" d="M229.378,473.531c-.376,0-.75-.009-1.123-.022C228.632,473.522,229.006,473.531,229.378,473.531Z" transform="translate(-198.379 -411.531)"/><g transform="translate(0.128 0.056)"><path class="d" d="M62.939,92.25H80.927a31.019,31.019,0,0,0-3.68-5.64H29.316a31.04,31.04,0,0,0-3.679,5.64h37.3Z" transform="translate(-22.409 -75.329)"/><path class="d" d="M125.8,6.071h10.089A30.829,30.829,0,0,0,119.8.43h-3.626a30.826,30.826,0,0,0-16.086,5.641H125.8Z" transform="translate(-87.119 -0.43)"/><path class="d" d="M44.645,178.441H62.723a30.876,30.876,0,0,0-1.028-5.639H2.006a30.837,30.837,0,0,0-1.028,5.639H44.645Z" transform="translate(-0.978 -150.24)"/><path class="d" d="M43.43,258.988H1.068a30.846,30.846,0,0,0,1.061,5.639h59.6a30.808,30.808,0,0,0,1.061-5.639H43.43Z" transform="translate(-1.056 -225.145)"/><path class="d" d="M65.38,345.166H26.254a31.054,31.054,0,0,0,3.73,5.64H77.652a31.049,31.049,0,0,0,3.73-5.64h-16Z" transform="translate(-22.946 -300.043)"/><path class="d" d="M127.184,431.359H101.793a30.837,30.837,0,0,0,16.365,5.51l.188.007c.373.013.747.022,1.123.022q.147,0,.292-.006-.143.006-.292.006a30.856,30.856,0,0,0,17.677-5.539h-9.962Z" transform="translate(-88.597 -374.954)"/></g><path class="e" d="M31.235.123A30.991,30.991,0,0,0,1.008,28.314H31.236V.123Z" transform="translate(-0.876 -0.107)"/><g transform="translate(1.043 2.148)"><path class="a" d="M34.094,134.187l.472,1.454H36.1l-1.238.9L35.331,138l-1.237-.9-1.237.9.472-1.455-1.237-.9h1.53Z" transform="translate(-28.934 -118.771)"/><path class="a" d="M34.094,173.438l.472,1.455H36.1l-1.238.9.473,1.455-1.237-.9-1.237.9.472-1.455-1.237-.9h1.53Z" transform="translate(-28.934 -152.885)"/><path class="a" d="M73.348,75.3l.472,1.455h1.53l-1.237.9.472,1.454-1.237-.9-1.237.9.472-1.454-1.238-.9h1.53Z" transform="translate(-63.05 -67.589)"/><path class="a" d="M73.348,114.554l.472,1.455h1.53l-1.237.9.472,1.455-1.237-.9-1.237.9.472-1.455-1.238-.9h1.53Z" transform="translate(-63.05 -101.708)"/><path class="a" d="M73.348,153.812l.472,1.455h1.53l-1.237.9.472,1.455-1.237-.9-1.237.9.472-1.455-1.238-.9h1.53Z" transform="translate(-63.05 -135.828)"/><path class="a" d="M9.229,166.575l-.473-1.455,1.237-.9H8.465l-.034-.106c-.168.519-.32,1.045-.46,1.577l.022-.016Z" transform="translate(-7.971 -144.782)"/><path class="a" d="M37.226,98.735l1.237-.9,1.237.9-.473-1.455,1.237-.9h-1.53l-.472-1.454L37.99,96.38h-.564c-.1.159-.206.318-.308.479l.58.42Z" transform="translate(-33.303 -84.649)"/><path class="a" d="M78.424,48.608l1.237.9-.472-1.454,1.237-.9h-.884q-1.126.842-2.17,1.781l-.187.573Z" transform="translate(-68.126 -43.129)"/><path class="a" d="M116.452,28.581l1.237-.9,1.237.9-.472-1.455,1.237-.9h-1.53l-.064-.2c-.518.265-1.031.54-1.533.834l.359.261Z" transform="translate(-102.253 -24.772)"/><path class="a" d="M112.607,55.671l.472,1.454h1.53l-1.237.9.472,1.455-1.237-.9-1.237.9.472-1.455-1.238-.9h1.53Z" transform="translate(-97.17 -50.532)"/><path class="a" d="M112.607,94.929l.472,1.454h1.53l-1.237.9.472,1.455-1.237-.9-1.237.9.472-1.455-1.238-.9h1.53Z" transform="translate(-97.17 -84.652)"/><path class="a" d="M112.607,134.187l.472,1.454h1.53l-1.237.9.472,1.455-1.237-.9-1.237.9.472-1.455-1.238-.9h1.53Z" transform="translate(-97.17 -118.771)"/><path class="a" d="M112.607,173.438l.472,1.455h1.53l-1.237.9.472,1.455-1.237-.9-1.237.9.472-1.455-1.238-.9h1.53Z" transform="translate(-97.17 -152.885)"/><path class="a" d="M151.865,36.038l.472,1.455h1.53l-1.237.9.472,1.454-1.237-.9-1.238.9.473-1.454-1.238-.9h1.53Z" transform="translate(-131.29 -33.469)"/><path class="a" d="M151.865,75.3l.472,1.455h1.53l-1.237.9L153.1,79.1l-1.237-.9-1.238.9.473-1.454-1.238-.9h1.53Z" transform="translate(-131.29 -67.589)"/><path class="a" d="M151.865,114.554l.472,1.455h1.53l-1.237.9.472,1.455-1.237-.9-1.238.9.473-1.455-1.238-.9h1.53Z" transform="translate(-131.29 -101.708)"/><path class="a" d="M151.865,153.812l.472,1.455h1.53l-1.237.9.472,1.455-1.237-.9-1.238.9.473-1.455-1.238-.9h1.53Z" transform="translate(-131.29 -135.828)"/><path class="a" d="M191.123,16.413l.472,1.455h1.53l-1.237.9.472,1.455-1.237-.9-1.238.9.473-1.455-1.238-.9h1.53Z" transform="translate(-165.409 -16.413)"/><path class="a" d="M191.123,55.671l.472,1.454h1.53l-1.237.9.472,1.455-1.237-.9-1.238.9.473-1.455-1.238-.9h1.53Z" transform="translate(-165.409 -50.532)"/><path class="a" d="M191.123,94.929l.472,1.454h1.53l-1.237.9.472,1.455-1.237-.9-1.238.9.473-1.455-1.238-.9h1.53Z" transform="translate(-165.409 -84.652)"/><path class="a" d="M191.123,134.187l.472,1.454h1.53l-1.237.9L192.36,138l-1.237-.9-1.238.9.473-1.455-1.238-.9h1.53Z" transform="translate(-165.409 -118.771)"/><path class="a" d="M191.123,173.438l.472,1.455h1.53l-1.237.9.472,1.455-1.237-.9-1.238.9.473-1.455-1.238-.9h1.53Z" transform="translate(-165.409 -152.885)"/></g></svg>