<svg xmlns="http://www.w3.org/2000/svg" width="45.734" height="59.649" viewBox="0 0 45.734 59.649"><defs><style>.a{fill:#234682;}</style></defs><path class="a" d="M-1239.941,154.125a12.522,12.522,0,0,1-4.328-1.356,16.509,16.509,0,0,1-3.021-.11,13.944,13.944,0,0,1-8.088-3.7,15.405,15.405,0,0,1-4.341-7.275,22.894,22.894,0,0,1-.514-8.962,18.07,18.07,0,0,1,5.532-10.952q4.709-4.555,10.46-3.812a17.1,17.1,0,0,1,4.873,1.314,11.229,11.229,0,0,1,3.2,2.026,9.161,9.161,0,0,1,1.775,2.439,9.2,9.2,0,0,1,.848,2.2c.11.551.189,1.09.242,1.61.09.213.332.343.723.393q1.236.158,1.347-.721.076-.587,1.211-8.439a73.186,73.186,0,0,0-14.077-3.311,18.156,18.156,0,0,0-14.448,4.192,20.346,20.346,0,0,0-7.424,13.576,19.123,19.123,0,0,0,3.678,14.263,17.678,17.678,0,0,0,12.444,7.4q9.745,1.259,14.367-.769a.7.7,0,0,0,.209-.25A12.4,12.4,0,0,1-1239.941,154.125Z" transform="translate(1266.152 -115.296)"/><path class="a" d="M-1254.5,155.119V132.744a22.459,22.459,0,0,0-.413-5.091c-.119-.316-.7-.611-1.747-.888a10.178,10.178,0,0,0-2.338-.415c-.158,0-.237-.237-.237-.71a1.488,1.488,0,0,1,.237-1.006q3.075.119,7.044.119,3.019,0,4.944-.031t3.4-.029a19.021,19.021,0,0,1,3.137.266,14.674,14.674,0,0,1,3.284.978,12.084,12.084,0,0,1,2.991,1.775,8,8,0,0,1,2.131,2.812,8.947,8.947,0,0,1,.828,3.878,6.53,6.53,0,0,1-1.362,3.966,9.833,9.833,0,0,1-2.516,2.544,10.864,10.864,0,0,1-1.982,1.006q-.475.178-.3.356,2.307.415,5.5,3.344a9.065,9.065,0,0,1,3.2,6.9,9.477,9.477,0,0,1-4.113,8.081q-4.116,2.989-10.922,2.988h-8.109l-7.163.18a1.555,1.555,0,0,1-.178-.949c0-.512.06-.769.178-.769a9.477,9.477,0,0,0,2.279-.415q1.51-.412,1.806-.947Q-1254.5,159.976-1254.5,155.119Zm12.372-13.791a6.932,6.932,0,0,0,4.056-1.687,4.936,4.936,0,0,0,1.628-3.878,9.2,9.2,0,0,0-2.043-6.363q-2.039-2.281-6.066-2.281a16.481,16.481,0,0,0-4.2.415c-.238.04-.356.218-.356.532l-.237,5.98v7.044q0,.415,3.906.415A27.031,27.031,0,0,0-1242.131,141.328Zm7.815,11.838a9.1,9.1,0,0,0-2.546-6.481q-2.544-2.692-7.991-2.694-1.305,0-4.262.237a6.4,6.4,0,0,0-.237,1.953v8.643q0,4.5.947,5.269a4.711,4.711,0,0,0,3.2.828,18.13,18.13,0,0,0,2.931-.237,22.278,22.278,0,0,0,3.463-.916,6.559,6.559,0,0,0,3.256-2.368A6.945,6.945,0,0,0-1234.316,153.166Z" transform="translate(1274.428 -104.116)"/></svg>