<svg xmlns="http://www.w3.org/2000/svg" width="32.913" height="32.913" viewBox="0 0 32.913 32.913"><defs><style>.a{fill:#28c3f3;}</style></defs><g transform="translate(0 0)"><g transform="translate(0)"><path class="a" d="M-272.685,1315.683h-13.3a9.816,9.816,0,0,0-9.806,9.8v13.3a9.816,9.816,0,0,0,9.806,9.806h13.3a9.816,9.816,0,0,0,9.8-9.806v-13.3A9.815,9.815,0,0,0-272.685,1315.683Zm6.494,23.107a6.494,6.494,0,0,1-6.494,6.494h-13.3a6.493,6.493,0,0,1-6.494-6.494v-13.3a6.493,6.493,0,0,1,6.494-6.494h13.3a6.494,6.494,0,0,1,6.494,6.494v13.3Z" transform="translate(295.794 -1315.683)"/><path class="a" d="M-280.528,1322.435a8.522,8.522,0,0,0-8.513,8.513,8.522,8.522,0,0,0,8.513,8.513,8.522,8.522,0,0,0,8.513-8.513A8.522,8.522,0,0,0-280.528,1322.435Zm0,13.714a5.2,5.2,0,0,1-5.2-5.2,5.2,5.2,0,0,1,5.2-5.2,5.2,5.2,0,0,1,5.2,5.2A5.2,5.2,0,0,1-280.528,1336.149Z" transform="translate(296.985 -1314.491)"/><ellipse class="a" cx="2.04" cy="2.04" rx="2.04" ry="2.04" transform="translate(22.946 5.968)"/></g></g></svg>