<svg xmlns="http://www.w3.org/2000/svg" width="34.719" height="34.717" viewBox="0 0 34.719 34.717"><defs><style>.a{fill:#28c3f3;}</style></defs><path class="a" d="M102.5,215.1v17h8.1V208.96h-8.1Z" transform="translate(-102.502 -197.388)"/><path class="a" d="M106.553,200.569a4.05,4.05,0,1,0,4.05,4.051A4.051,4.051,0,0,0,106.553,200.569Z" transform="translate(-102.502 -200.569)"/><path class="a" d="M133.543,216.067c-.549-4.362-2.551-7.107-8.45-7.107-3.5,0-5.848,1.3-6.807,3.124h-.1V208.96h-6.452V232.1h6.744v-11.47c0-3.027.571-5.955,4.314-5.955,3.686,0,3.983,3.459,3.983,6.15V232.1h6.945V219.386h0A26.907,26.907,0,0,0,133.543,216.067Z" transform="translate(-99.002 -197.388)"/></svg>