<svg xmlns="http://www.w3.org/2000/svg" width="56.295" height="67.144" viewBox="0 0 56.295 67.144"><defs><style>.a{fill:#28c3f3;}</style></defs><path class="a" d="M175.122,74.651h-12.9V49.142a1.173,1.173,0,0,0-.344-.829L150.15,38.344A1.173,1.173,0,0,0,149.32,38H121.173A1.173,1.173,0,0,0,120,39.173v53.07a1.173,1.173,0,0,0,1.173,1.173H149.32v10.555a1.173,1.173,0,0,0,1.173,1.173h24.629a1.173,1.173,0,0,0,1.173-1.173V75.823A1.173,1.173,0,0,0,175.122,74.651Zm-25.8,1.173V91.07H122.346V40.346h26.489l9.383,7.623h-7.724V40.785l-2.346-1.319v9.676a1.173,1.173,0,0,0,1.173,1.173h10.555V74.651h-9.383A1.173,1.173,0,0,0,149.32,75.823ZM173.95,102.8H151.666V77H173.95Z" transform="translate(-120 -38)"/><path class="a" d="M360,384h3.518v2.346H360Z" transform="translate(-324.815 -333.276)"/><path class="a" d="M400,384h3.518v2.346H400Z" transform="translate(-358.951 -333.276)"/><path class="a" d="M440,384h3.518v2.346H440Z" transform="translate(-393.087 -333.276)"/><path class="a" d="M360,416h3.518v2.346H360Z" transform="translate(-324.815 -360.584)"/><path class="a" d="M400,416h3.518v2.346H400Z" transform="translate(-358.951 -360.584)"/><path class="a" d="M440,416h3.518v2.346H440Z" transform="translate(-393.087 -360.584)"/><path class="a" d="M360,448h3.518v2.346H360Z" transform="translate(-324.815 -387.893)"/><path class="a" d="M400,448h3.518v2.346H400Z" transform="translate(-358.951 -387.893)"/><path class="a" d="M440,448h3.518v2.346H440Z" transform="translate(-393.087 -387.893)"/><path class="a" d="M353.173,327.037h15.247a1.173,1.173,0,0,0,1.173-1.173v-4.691A1.173,1.173,0,0,0,368.419,320H353.173A1.173,1.173,0,0,0,352,321.173v4.691A1.173,1.173,0,0,0,353.173,327.037Zm1.173-4.691h12.9v2.346h-12.9Z" transform="translate(-317.988 -278.658)"/><path class="a" d="M183.518,84.691h2.346a1.174,1.174,0,0,1,1.173,1.173h2.346a3.522,3.522,0,0,0-3.518-3.518V80h-2.346v2.346A3.522,3.522,0,0,0,180,85.864v1.173a3.522,3.522,0,0,0,3.518,3.518h2.346a1.174,1.174,0,0,1,1.173,1.173V92.9a1.174,1.174,0,0,1-1.173,1.173h-2.346a1.174,1.174,0,0,1-1.173-1.173H180a3.522,3.522,0,0,0,3.518,3.518v2.346h2.346V96.419a3.522,3.522,0,0,0,3.518-3.518V91.728a3.522,3.522,0,0,0-3.518-3.518h-2.346a1.174,1.174,0,0,1-1.173-1.173V85.864A1.174,1.174,0,0,1,183.518,84.691Z" transform="translate(-171.204 -73.843)"/><path class="a" d="M170.765,268.691a1.173,1.173,0,0,0-1.173-1.173h-3.518v-2.346A1.173,1.173,0,0,0,164.9,264H160.21a1.173,1.173,0,0,0-1.173,1.173v5.864h-3.518a1.173,1.173,0,0,0-1.173,1.173v5.864H152v2.346h21.111v-2.346h-2.346Zm-14.074,4.691h2.346v4.691h-2.346Zm4.691-1.173v-5.864h2.346v11.728h-2.346Zm4.691,5.864v-8.21h2.346v8.21Z" transform="translate(-147.309 -230.868)"/><path class="a" d="M288,144h11.728v2.346H288Z" transform="translate(-263.371 -128.46)"/><path class="a" d="M288,176h11.728v2.346H288Z" transform="translate(-263.371 -155.769)"/><path class="a" d="M288,208h11.728v2.346H288Z" transform="translate(-263.371 -183.078)"/><path class="a" d="M288,240h2.346v2.346H288Z" transform="translate(-263.371 -210.386)"/><path class="a" d="M320,240h2.346v2.346H320Z" transform="translate(-290.68 -210.386)"/><path class="a" d="M352,240h2.346v2.346H352Z" transform="translate(-317.988 -210.386)"/></svg>