<svg xmlns="http://www.w3.org/2000/svg" width="47.159" height="61.526" viewBox="0 0 47.159 61.526"><defs><style>.a{fill:#28c3f3;}</style></defs><g transform="translate(-770 -3638.312)"><g transform="translate(770 3638.312)"><path class="a" d="M120.008,23.548h-4.414V19.134a.905.905,0,0,0-.9-.906H85.4a.877.877,0,0,0-.174.018h-.005a.913.913,0,0,0-.224.08l-.046.025a.908.908,0,0,0-.2.144L74.022,29.236a.888.888,0,0,0-.144.194c-.009.016-.018.032-.026.048a.93.93,0,0,0-.079.221v.012a.878.878,0,0,0-.017.167V73.529a.906.906,0,0,0,.906.906h4.415v4.414a.905.905,0,0,0,.9.906h40.028a.905.905,0,0,0,.906-.9h0v-54.4a.905.905,0,0,0-.9-.906ZM84.5,21.32v7.652H76.847Zm-8.934,9.463H85.4a.905.905,0,0,0,.906-.9h0v-1.4h20.138a.906.906,0,1,0,0-1.811H86.312V20.039h27.471V72.623H75.566ZM119.1,77.943H80.887V74.434h33.8a.905.905,0,0,0,.906-.9h0V25.359H119.1Z" transform="translate(-73.756 -18.228)"/><path class="a" d="M138.342,181.907h23.547a.906.906,0,1,0,0-1.811H138.342a.906.906,0,0,0,0,1.811Z" transform="translate(-129.197 -159.153)"/><path class="a" d="M138.342,230.251h23.547a.906.906,0,1,0,0-1.811H138.342a.906.906,0,0,0,0,1.811Z" transform="translate(-129.197 -201.243)"/><path class="a" d="M138.342,278.611h23.547a.906.906,0,0,0,0-1.811H138.342a.906.906,0,0,0,0,1.811Z" transform="translate(-129.197 -243.346)"/><path class="a" d="M138.342,326.935h23.547a.906.906,0,1,0,0-1.811H138.342a.906.906,0,1,0,0,1.811Z" transform="translate(-129.197 -285.418)"/><path class="a" d="M138.342,375.279h23.547a.906.906,0,0,0,0-1.811H138.342a.906.906,0,0,0,0,1.811Z" transform="translate(-129.197 -327.507)"/><path class="a" d="M138.342,133.563h23.547a.906.906,0,1,0,0-1.811H138.342a.906.906,0,0,0,0,1.811Z" transform="translate(-129.197 -117.064)"/></g></g></svg>