<svg xmlns="http://www.w3.org/2000/svg" width="58" height="57.981" viewBox="0 0 58 57.981"><defs><style>.a{fill:#28c3f3;}</style></defs><g transform="translate(0 -0.082)"><g transform="translate(45.751 16.842)"><path class="a" d="M405.805,148.367a1.132,1.132,0,1,0,.332.8A1.14,1.14,0,0,0,405.805,148.367Z" transform="translate(-403.872 -148.035)"/></g><g transform="translate(0 0.082)"><g transform="translate(0 0)"><path class="a" d="M46.884,25.237A1.133,1.133,0,0,0,48.016,24.1V3.479a3.4,3.4,0,0,0-3.4-3.4H3.4A3.4,3.4,0,0,0,0,3.479V54.666a3.4,3.4,0,0,0,3.4,3.4H44.619a3.4,3.4,0,0,0,3.4-3.4V44.474a1.132,1.132,0,0,0-2.265,0V54.666A1.134,1.134,0,0,1,44.619,55.8H3.4a1.134,1.134,0,0,1-1.132-1.132V3.479A1.134,1.134,0,0,1,3.4,2.347H44.619a1.134,1.134,0,0,1,1.132,1.132V24.1A1.132,1.132,0,0,0,46.884,25.237Z" transform="translate(0 -0.082)"/></g></g><g transform="translate(7.927 6.665)"><path class="a" d="M119.056,97.155l-5.842-5.842A12.445,12.445,0,0,0,102.345,72.8l-.2,0V66.57a1.133,1.133,0,0,0-1.132-1.132H94.389V59.322a1.133,1.133,0,0,0-1.132-1.132H85.505a1.133,1.133,0,0,0-1.132,1.132v6.795H77.754a1.133,1.133,0,0,0-1.132,1.132v6.115H71.11A1.133,1.133,0,0,0,69.978,74.5v6.115a1.133,1.133,0,0,0,1.132,1.132H90.4a12.446,12.446,0,0,0,18.012,14.373l5.8,5.8a3.469,3.469,0,0,0,2.457,1.028,3.394,3.394,0,0,0,2.386-5.795ZM76.622,79.48H72.243V75.63h4.379v3.85Zm7.751,0H78.887v-11.1h5.486Zm2.265,0V60.455h5.486V77.879a1.132,1.132,0,1,0,2.265,0V67.7h5.486v5.342a12.492,12.492,0,0,0-8.56,6.435Zm15.707,15.953A10.185,10.185,0,1,1,112.53,85.248,10.2,10.2,0,0,1,102.345,95.433Zm15.079,4.954a1.17,1.17,0,0,1-1.609-.068l-5.508-5.508a12.568,12.568,0,0,0,1.6-1.6l5.546,5.546a1.132,1.132,0,0,1-.031,1.631Z" transform="translate(-69.978 -58.19)"/></g><g transform="translate(6.115 49.683)"><path class="a" d="M86.469,437.943H55.115a1.132,1.132,0,1,0,0,2.265H86.469a1.132,1.132,0,1,0,0-2.265Z" transform="translate(-53.983 -437.943)"/></g><g transform="translate(15.854 43.342)"><path class="a" d="M152.531,381.961H141.083a1.132,1.132,0,1,0,0,2.265h11.447a1.132,1.132,0,1,0,0-2.265Z" transform="translate(-139.951 -381.961)"/></g><g transform="translate(15.854 37)"><path class="a" d="M148.105,325.978h-7.022a1.132,1.132,0,1,0,0,2.265h7.022a1.132,1.132,0,0,0,0-2.265Z" transform="translate(-139.951 -325.978)"/></g><g transform="translate(6.115 34.424)"><path class="a" d="M57.607,308.7a1.148,1.148,0,1,1,1.359-1.129,1.132,1.132,0,1,0,2.265,0,3.428,3.428,0,0,0-2.493-3.223,1.132,1.132,0,0,0-2.263,0,3.428,3.428,0,0,0-2.493,3.223,3.518,3.518,0,0,0,3.624,3.394,1.148,1.148,0,1,1-1.359,1.129,1.132,1.132,0,1,0-2.265,0,3.428,3.428,0,0,0,2.491,3.223v.065a1.132,1.132,0,0,0,2.265,0v-.065a3.428,3.428,0,0,0,2.491-3.223A3.518,3.518,0,0,0,57.607,308.7Z" transform="translate(-53.983 -303.237)"/></g></g></svg>