<svg xmlns="http://www.w3.org/2000/svg" width="65" height="64.997" viewBox="0 0 65 64.997"><defs><style>.a{fill:#28c3f3;}</style></defs><g transform="translate(0.001 -0.01)"><g transform="translate(-0.001 0.01)"><path class="a" d="M62.832,198.316l-3.755,3.755a1.27,1.27,0,0,0-.372.9,10,10,0,0,1-2.949,7.119L35.7,230.148a1.909,1.909,0,0,1-2.831-2.554l11.616-11.616a1.27,1.27,0,0,0,0-1.8l0,0,0,0a1.27,1.27,0,0,0-1.8,0L28.672,228.2a1.909,1.909,0,0,1-2.832-2.553L39.993,211.49a1.27,1.27,0,0,0-1.8-1.8L21.722,226.17a1.909,1.909,0,0,1-2.7-2.7L35.509,207a1.27,1.27,0,1,0-1.8-1.8L19,219.905a1.909,1.909,0,0,1-2.553-2.832l16.669-16.687a1.27,1.27,0,0,0-1.8-1.8L17,212.925l-4.895-4.895a24.569,24.569,0,0,1-6.393-11.155,1.27,1.27,0,0,0-.331-.577l-3.216-3.216a1.27,1.27,0,0,0-1.8,1.8l2.976,2.976a27.114,27.114,0,0,0,6.964,11.972l4.895,4.895-.557.557a4.445,4.445,0,0,0,1.829,7.392,4.448,4.448,0,0,0,6.646,5.645,4.448,4.448,0,0,0,7.027,1.965,4.453,4.453,0,0,0,7.341,1.664l1.624-1.624,1.136,1.136a4.447,4.447,0,0,0,7.558-2.588,4.489,4.489,0,0,0,.754.065,4.445,4.445,0,0,0,4.448-4.446c0-.017,0-.034,0-.05h.048a4.444,4.444,0,0,0,4.448-4.446,4.505,4.505,0,0,0-.046-.638,4.448,4.448,0,0,0,2.672-7.568l-1.343-1.343a12.5,12.5,0,0,0,2.441-6.935l3.395-3.395a1.27,1.27,0,0,0-1.8-1.8ZM44.748,229.659a1.912,1.912,0,0,1-2.7,0l-1.124-1.124,2.7-2.7.643.643.481.481a1.909,1.909,0,0,1,0,2.7Zm5.726-5.174a1.909,1.909,0,0,1-3.259,1.35l-.671-.671h0l-1.124-1.124,2.7-2.7,1.8,1.8a1.9,1.9,0,0,1,.559,1.35Zm3.936-3.145a1.911,1.911,0,0,1-2.7,0l-1.8-1.8,2.7-2.7,1.8,1.8a1.91,1.91,0,0,1,0,2.7Zm3.93-5.061a1.909,1.909,0,0,1-2.7,0l-1.229-1.23,2.7-2.7,1.23,1.23a1.909,1.909,0,0,1,0,2.7Z" transform="translate(0 -168.247)"/><path class="a" d="M15.063,16.869a1.27,1.27,0,0,0,.9.372h6.552A20.756,20.756,0,0,1,35.56,21.872L45.876,30.25a8.314,8.314,0,0,1-8.673.506l-7.019-3.8a1.269,1.269,0,0,0-.972-.1,23.557,23.557,0,0,1-13.565.035l-.125-.037a1.269,1.269,0,1,0-.722,2.434l.124.037a26.085,26.085,0,0,0,14.509.111l1.829.991-3.721,3.721a1.27,1.27,0,0,0,1.8,1.8l4.255-4.255,2.4,1.3a10.708,10.708,0,0,0,5.119,1.3,10.953,10.953,0,0,0,1.575-.115,10.716,10.716,0,0,0,6.077-3.049,1.27,1.27,0,0,0-.1-1.883L38.422,20.925A19.481,19.481,0,0,1,48.579,18a1.269,1.269,0,0,0,.889-.372L64.627,2.467a1.27,1.27,0,0,0-1.8-1.8l-14.8,14.8a22.012,22.012,0,0,0-11.707,3.787A23.311,23.311,0,0,0,22.513,14.7H16.487L2.167.382a1.27,1.27,0,1,0-1.8,1.8Z" transform="translate(0.001 -0.01)"/><path class="a" d="M182.571,298.169a1.27,1.27,0,1,0,.9-.372A1.278,1.278,0,0,0,182.571,298.169Z" transform="translate(-159.069 -259.992)"/></g></g></svg>