<svg xmlns="http://www.w3.org/2000/svg" width="32.768" height="32.77" viewBox="0 0 32.768 32.77"><defs><style>.a{fill:#3ab7ff;}</style></defs><path class="a" d="M134.717,158.175a16.087,16.087,0,0,0-32.145-.3c-.01.234-.018.469-.018.7a15.8,15.8,0,0,0,2.308,8.241l-2.9,8.565,8.906-2.831a16.112,16.112,0,0,0,23.862-13.975C134.727,158.444,134.721,158.31,134.717,158.175ZM118.641,172a13.511,13.511,0,0,1-7.442-2.221L106,171.43l1.69-4.983a13.282,13.282,0,0,1-2.575-7.868c0-.44.022-.873.064-1.3a13.531,13.531,0,0,1,26.939.253c.027.346.046.7.046,1.048A13.489,13.489,0,0,1,118.641,172Z" transform="translate(-101.959 -142.618)"/><path class="a" d="M123.96,159.789c-.394-.2-2.335-1.143-2.7-1.272s-.625-.2-.888.194-1.018,1.273-1.248,1.533-.459.3-.854.1A10.744,10.744,0,0,1,115.1,158.4a11.732,11.732,0,0,1-2.193-2.709c-.23-.391-.023-.6.172-.8.18-.174.4-.457.592-.685a1.755,1.755,0,0,0,.143-.187,4.218,4.218,0,0,0,.253-.465.716.716,0,0,0-.034-.686c-.1-.2-.888-2.122-1.215-2.905s-.657-.652-.888-.652-.493-.031-.756-.031a1.454,1.454,0,0,0-1.052.489,4.373,4.373,0,0,0-1.38,3.262,4.858,4.858,0,0,0,.2,1.332,8.887,8.887,0,0,0,1.407,2.715c.2.259,2.728,4.34,6.735,5.906s4.009,1.045,4.733.979a3.985,3.985,0,0,0,2.662-1.86,3.273,3.273,0,0,0,.229-1.861C124.615,160.083,124.354,159.984,123.96,159.789Z" transform="translate(-99.911 -140.607)"/></svg>