<svg xmlns="http://www.w3.org/2000/svg" width="32.76" height="21.333" viewBox="0 0 32.76 21.333"><defs><style>.a{fill:#3ab7ff;}</style></defs><g transform="translate(-290.74 -405.731)"><path class="a" d="M828.853,137.866H801.4a2.658,2.658,0,0,0-2.656,2.656v16.022A2.659,2.659,0,0,0,801.4,159.2h27.448a2.659,2.659,0,0,0,2.656-2.656V140.522A2.658,2.658,0,0,0,828.853,137.866Zm.327,3.588v15.089a.328.328,0,0,1-.327.329H801.4a.33.33,0,0,1-.329-.329V141.456l13.868,9.313.184.125Zm-25.815-1.261h23.523l-11.761,7.9Z" transform="translate(-508.008 267.865)"/></g></svg>