<svg xmlns="http://www.w3.org/2000/svg" width="84.166" height="74.482" viewBox="0 0 84.166 74.482"><defs><style>.a{fill:#28c3f3;}</style></defs><g transform="translate(351.317 -353.622)"><path class="a" d="M-220.375,494.948a11.827,11.827,0,0,1-11.814-11.814v-5.69a11.827,11.827,0,0,1,11.813-11.814,11.827,11.827,0,0,1,11.814,11.814v5.69A11.827,11.827,0,0,1-220.375,494.948Zm0-26.176a8.682,8.682,0,0,0-8.672,8.672v5.69a8.682,8.682,0,0,0,8.672,8.672h0a8.682,8.682,0,0,0,8.672-8.672v-5.69A8.682,8.682,0,0,0-220.375,468.772Z" transform="translate(-89.186 -83.856)"/><path class="a" d="M-253.856,604.032l-.076,0a1.57,1.57,0,0,1-1.494-1.644,14.224,14.224,0,0,1,4.532-9.728,14.659,14.659,0,0,1,9.935-3.993c.553,0,1.11-.014,1.667-.025,4.53-.084,9.214-.172,13.287,2.824a14.565,14.565,0,0,1,5.884,10.922,1.571,1.571,0,0,1-1.494,1.644,1.57,1.57,0,0,1-1.644-1.494,11.394,11.394,0,0,0-4.608-8.542c-3.216-2.366-7.175-2.291-11.367-2.213-.569.011-1.137.021-1.7.026a11.511,11.511,0,0,0-11.354,10.73A1.571,1.571,0,0,1-253.856,604.032Z" transform="translate(-71.789 -175.928)"/><path class="a" d="M-207.946,574.511a1.571,1.571,0,0,1-1.571-1.571v-5.859a1.571,1.571,0,0,1,1.571-1.571,1.571,1.571,0,0,1,1.571,1.571v5.859A1.571,1.571,0,0,1-207.946,574.511Z" transform="translate(-106.16 -158.632)"/><path class="a" d="M-168.755,574.511a1.571,1.571,0,0,1-1.571-1.571v-5.859a1.571,1.571,0,0,1,1.571-1.571,1.571,1.571,0,0,1,1.571,1.571v5.859A1.571,1.571,0,0,1-168.755,574.511Z" transform="translate(-135.5 -158.632)"/><path class="a" d="M-106.4,513.126a10.423,10.423,0,0,1-10.412-10.412V497.7A10.423,10.423,0,0,1-106.4,487.288,10.423,10.423,0,0,1-95.989,497.7v5.015A10.423,10.423,0,0,1-106.4,513.126Zm0-23.07a7.652,7.652,0,0,0-7.643,7.643v5.015a7.652,7.652,0,0,0,7.643,7.643,7.652,7.652,0,0,0,7.643-7.643V497.7A7.652,7.652,0,0,0-106.4,490.056Z" transform="translate(-175.564 -100.07)"/><path class="a" d="M-91.427,604.041A1.384,1.384,0,0,1-92.7,603.2a11.028,11.028,0,0,0-6.638-6.041,17.276,17.276,0,0,0-13.385,1.031,1.384,1.384,0,0,1-1.868-.586,1.384,1.384,0,0,1,.586-1.867,20.128,20.128,0,0,1,15.6-1.184,13.654,13.654,0,0,1,8.253,7.562,1.384,1.384,0,0,1-.73,1.816A1.377,1.377,0,0,1-91.427,604.041Z" transform="translate(-177.108 -179.588)"/><path class="a" d="M-95.446,583.247a1.384,1.384,0,0,1-1.384-1.384V576.7a1.384,1.384,0,0,1,1.384-1.384,1.384,1.384,0,0,1,1.384,1.384v5.165A1.384,1.384,0,0,1-95.446,583.247Z" transform="translate(-190.524 -165.972)"/><path class="a" d="M-60.906,583.247a1.384,1.384,0,0,1-1.384-1.384V576.7a1.384,1.384,0,0,1,1.384-1.384,1.384,1.384,0,0,1,1.384,1.384v5.165A1.384,1.384,0,0,1-60.906,583.247Z" transform="translate(-216.382 -165.972)"/><path class="a" d="M-323.393,513.126A10.423,10.423,0,0,1-333.8,502.715V497.7a10.423,10.423,0,0,1,10.412-10.412A10.423,10.423,0,0,1-312.982,497.7v5.015A10.423,10.423,0,0,1-323.393,513.126Zm0-23.07a7.652,7.652,0,0,0-7.643,7.643v5.015a7.652,7.652,0,0,0,7.643,7.643,7.652,7.652,0,0,0,7.643-7.643V497.7A7.652,7.652,0,0,0-323.393,490.056Z" transform="translate(-13.11 -100.07)"/><path class="a" d="M-349.933,604.039a1.384,1.384,0,0,1-.535-.108,1.384,1.384,0,0,1-.741-1.812,13.523,13.523,0,0,1,8.148-7.546,20.226,20.226,0,0,1,15.7,1.158,1.384,1.384,0,0,1,.592,1.866,1.384,1.384,0,0,1-1.866.592,17.376,17.376,0,0,0-13.486-1.013,10.9,10.9,0,0,0-6.539,6.014A1.385,1.385,0,0,1-349.933,604.039Z" transform="translate(0 -179.586)"/><path class="a" d="M-280.569,583.247a1.384,1.384,0,0,1-1.384-1.384V576.7a1.384,1.384,0,0,1,1.384-1.384,1.384,1.384,0,0,1,1.384,1.384v5.165A1.384,1.384,0,0,1-280.569,583.247Z" transform="translate(-51.93 -165.972)"/><path class="a" d="M-315.109,583.247a1.384,1.384,0,0,1-1.384-1.384V576.7a1.384,1.384,0,0,1,1.384-1.384,1.384,1.384,0,0,1,1.384,1.384v5.165A1.384,1.384,0,0,1-315.109,583.247Z" transform="translate(-26.071 -165.972)"/><path class="a" d="M-244.783,382.781a1.384,1.384,0,0,1-1.384-1.384V356.39h-37.111v11.35a1.384,1.384,0,0,1-1.384,1.384h-16.88V381.4a1.384,1.384,0,0,1-1.384,1.384,1.384,1.384,0,0,1-1.384-1.384V367.741a1.384,1.384,0,0,1,1.384-1.384h16.88v-11.35a1.384,1.384,0,0,1,1.384-1.384h39.88a1.384,1.384,0,0,1,1.384,1.384V381.4A1.384,1.384,0,0,1-244.783,382.781Z" transform="translate(-35.191)"/><path class="a" d="M-187.261,387.729a1.384,1.384,0,0,1-1.384-1.384v-3.467a1.384,1.384,0,0,1,1.384-1.384,1.384,1.384,0,0,1,1.384,1.384v3.467A1.384,1.384,0,0,1-187.261,387.729Z" transform="translate(-121.786 -20.866)"/><path class="a" d="M-147.594,387.729a1.384,1.384,0,0,1-1.384-1.384v-3.467a1.384,1.384,0,0,1,1.384-1.384,1.384,1.384,0,0,1,1.384,1.384v3.467A1.384,1.384,0,0,1-147.594,387.729Z" transform="translate(-151.483 -20.866)"/><path class="a" d="M-107.927,387.729a1.384,1.384,0,0,1-1.384-1.384v-3.467a1.384,1.384,0,0,1,1.384-1.384,1.384,1.384,0,0,1,1.384,1.384v3.467A1.384,1.384,0,0,1-107.927,387.729Z" transform="translate(-181.18 -20.866)"/><path class="a" d="M-147.594,432.729a1.384,1.384,0,0,1-1.384-1.384v-3.467a1.384,1.384,0,0,1,1.384-1.384,1.384,1.384,0,0,1,1.384,1.384v3.467A1.384,1.384,0,0,1-147.594,432.729Z" transform="translate(-151.483 -54.555)"/><path class="a" d="M-107.927,432.729a1.384,1.384,0,0,1-1.384-1.384v-3.467a1.384,1.384,0,0,1,1.384-1.384,1.384,1.384,0,0,1,1.384,1.384v3.467A1.384,1.384,0,0,1-107.927,432.729Z" transform="translate(-181.18 -54.555)"/><path class="a" d="M-265.8,432.729a1.384,1.384,0,0,1-1.384-1.384v-3.467a1.384,1.384,0,0,1,1.384-1.384,1.384,1.384,0,0,1,1.384,1.384v3.467A1.384,1.384,0,0,1-265.8,432.729Z" transform="translate(-62.988 -54.555)"/><path class="a" d="M-226.131,432.729a1.384,1.384,0,0,1-1.384-1.384v-3.467a1.384,1.384,0,0,1,1.384-1.384,1.384,1.384,0,0,1,1.384,1.384v3.467A1.384,1.384,0,0,1-226.131,432.729Z" transform="translate(-92.685 -54.555)"/><path class="a" d="M-186.464,432.729a1.384,1.384,0,0,1-1.384-1.384v-3.467a1.384,1.384,0,0,1,1.384-1.384,1.384,1.384,0,0,1,1.384,1.384v3.467A1.384,1.384,0,0,1-186.464,432.729Z" transform="translate(-122.382 -54.555)"/><path class="a" d="M-177.924,607.9a1.381,1.381,0,0,1-.513-.1,1.384,1.384,0,0,1-.771-1.8c.547-1.37,1.144-2.737,1.721-4.06.969-2.223,1.972-4.522,2.775-6.9a1.385,1.385,0,0,1,1.754-.87,1.384,1.384,0,0,1,.87,1.754c-.841,2.495-1.868,4.849-2.861,7.126-.568,1.3-1.156,2.652-1.688,3.981A1.384,1.384,0,0,1-177.924,607.9Z" transform="translate(-128.776 -180.031)"/><path class="a" d="M-215.05,607.909a1.385,1.385,0,0,1-1.328-1c-.5-1.71-.877-3.449-1.244-5.13-.445-2.042-.866-3.97-1.484-5.878a1.384,1.384,0,0,1,.89-1.744,1.385,1.385,0,0,1,1.743.89c.661,2.038,1.116,4.124,1.556,6.141.357,1.636.726,3.327,1.2,4.947a1.384,1.384,0,0,1-.942,1.716A1.388,1.388,0,0,1-215.05,607.909Z" transform="translate(-98.929 -180.03)"/><path class="a" d="M-101.981,607.38a1.385,1.385,0,0,1-1.309-.937q-.209-.611-.42-1.222c-.6-1.749-1.225-3.556-1.77-5.371a1.384,1.384,0,0,1,.927-1.724,1.385,1.385,0,0,1,1.724.927c.53,1.762,1.143,3.544,1.736,5.267q.211.614.422,1.227a1.384,1.384,0,0,1-.862,1.758A1.382,1.382,0,0,1-101.981,607.38Z" transform="translate(-184.003 -183.006)"/><path class="a" d="M-60.462,607.53a1.376,1.376,0,0,1-.353-.046,1.384,1.384,0,0,1-.987-1.69c.135-.514.275-1.027.415-1.54a46.741,46.741,0,0,0,1.178-5.019,1.384,1.384,0,0,1,1.583-1.151,1.384,1.384,0,0,1,1.151,1.583,49.6,49.6,0,0,1-1.241,5.316c-.138.5-.276,1.009-.408,1.514A1.385,1.385,0,0,1-60.462,607.53Z" transform="translate(-216.714 -183.006)"/><path class="a" d="M-322.531,607.449a1.385,1.385,0,0,1-1.314-.951c-.364-1.1-.7-2.225-1.023-3.311s-.662-2.214-1.021-3.3a1.384,1.384,0,0,1,.879-1.749,1.385,1.385,0,0,1,1.749.879c.373,1.126.715,2.271,1.046,3.378.319,1.067.648,2.17,1,3.236a1.384,1.384,0,0,1-.881,1.748A1.381,1.381,0,0,1-322.531,607.449Z" transform="translate(-18.983 -183.006)"/><path class="a" d="M-280.773,607.5a1.384,1.384,0,0,1-.273-.027,1.384,1.384,0,0,1-1.086-1.629q.089-.444.175-.889A43.347,43.347,0,0,1-280.488,599a1.385,1.385,0,0,1,1.762-.852,1.385,1.385,0,0,1,.852,1.763,40.582,40.582,0,0,0-1.366,5.579q-.088.449-.177.9A1.385,1.385,0,0,1-280.773,607.5Z" transform="translate(-51.776 -183.005)"/></g></svg>