<svg xmlns="http://www.w3.org/2000/svg" width="85.508" height="48.666" viewBox="0 0 85.508 48.666"><defs><style>.a{fill:#28c3f3;}</style></defs><g transform="translate(602.874 -107.167)"><path class="a" d="M-552.709,167.054h-28.958a1.207,1.207,0,0,1-1.207-1.207V130.374a1.207,1.207,0,0,1,1.207-1.207h28.958a1.207,1.207,0,0,1,1.207,1.207v35.474A1.207,1.207,0,0,1-552.709,167.054Zm-27.752-2.413h26.545V131.58h-26.545Z" transform="translate(-15.174 -16.691)"/><path class="a" d="M-581.667,190.661a1.217,1.217,0,0,1-.291-.035,1.205,1.205,0,0,1-.882-1.458c.092-.376,2.209-8.636,9.935-11.26a11.374,11.374,0,0,1-1.845-6.673c.1-2.791,1.847-8.063,7.769-8.083a8.194,8.194,0,0,1,5.683,2.056c1.671,1.575,2.5,3.892,2.474,6.885a1.214,1.214,0,0,1-.017.19,19.345,19.345,0,0,1-1.873,5.62c2.958,1.15,8.8,4.244,9.208,10.836a1.207,1.207,0,0,1-1.131,1.278,1.206,1.206,0,0,1-1.278-1.13c-.424-6.924-8.981-9.179-9.067-9.2a1.206,1.206,0,0,1-.873-.876,1.207,1.207,0,0,1,.357-1.184c1.1-1,1.96-3.956,2.262-5.652a6.587,6.587,0,0,0-1.717-5.009,5.82,5.82,0,0,0-3.912-1.4l-.083,0a4.706,4.706,0,0,0-4.569,2.726,8.32,8.32,0,0,0-.821,3.031,8.689,8.689,0,0,0,2.344,6.385,1.206,1.206,0,0,1,.346,1.216,1.207,1.207,0,0,1-.929.857c-7.726,1.516-9.835,9.621-9.921,9.966A1.208,1.208,0,0,1-581.667,190.661Z" transform="translate(-15.173 -42.47)"/><path class="a" d="M-395.687,146.58H-431a1.207,1.207,0,0,1-1.207-1.207A1.207,1.207,0,0,1-431,144.167h35.313a1.207,1.207,0,0,1,1.207,1.207A1.207,1.207,0,0,1-395.687,146.58Z" transform="translate(-129.482 -28.071)"/><path class="a" d="M-405.662,173.58H-431a1.207,1.207,0,0,1-1.207-1.207A1.207,1.207,0,0,1-431,171.167h25.339a1.207,1.207,0,0,1,1.207,1.207A1.207,1.207,0,0,1-405.662,173.58Z" transform="translate(-129.482 -48.556)"/><path class="a" d="M-400.192,197.58H-431a1.207,1.207,0,0,1-1.207-1.207A1.207,1.207,0,0,1-431,195.167h30.808a1.206,1.206,0,0,1,1.207,1.207A1.207,1.207,0,0,1-400.192,197.58Z" transform="translate(-129.482 -66.764)"/><path class="a" d="M-416.521,223.913H-431a1.207,1.207,0,0,1-1.207-1.207A1.207,1.207,0,0,1-431,221.5h14.479a1.207,1.207,0,0,1,1.207,1.207A1.207,1.207,0,0,1-416.521,223.913Z" transform="translate(-129.482 -86.742)"/><path class="a" d="M-333.475,223.913h-10.859a1.207,1.207,0,0,1-1.207-1.207,1.207,1.207,0,0,1,1.207-1.207h10.859a1.207,1.207,0,0,1,1.207,1.207A1.207,1.207,0,0,1-333.475,223.913Z" transform="translate(-195.233 -86.742)"/><path class="a" d="M-416.521,245.58H-431a1.207,1.207,0,0,1-1.207-1.207A1.207,1.207,0,0,1-431,243.167h14.479a1.207,1.207,0,0,1,1.207,1.207A1.207,1.207,0,0,1-416.521,245.58Z" transform="translate(-129.482 -103.181)"/><path class="a" d="M-333.475,245.58h-10.859a1.207,1.207,0,0,1-1.207-1.207,1.207,1.207,0,0,1,1.207-1.207h10.859a1.206,1.206,0,0,1,1.207,1.207A1.207,1.207,0,0,1-333.475,245.58Z" transform="translate(-195.233 -103.181)"/><path class="a" d="M-416.521,267.246H-431a1.207,1.207,0,0,1-1.207-1.207A1.207,1.207,0,0,1-431,264.833h14.479a1.207,1.207,0,0,1,1.207,1.207A1.207,1.207,0,0,1-416.521,267.246Z" transform="translate(-129.482 -119.618)"/><path class="a" d="M-333.475,267.246h-10.859a1.207,1.207,0,0,1-1.207-1.207,1.207,1.207,0,0,1,1.207-1.207h10.859a1.206,1.206,0,0,1,1.207,1.207A1.206,1.206,0,0,1-333.475,267.246Z" transform="translate(-195.233 -119.618)"/><path class="a" d="M-518.573,155.833h-83.094a1.207,1.207,0,0,1-1.207-1.207V108.374a1.207,1.207,0,0,1,1.207-1.207h83.094a1.206,1.206,0,0,1,1.207,1.207v46.253A1.206,1.206,0,0,1-518.573,155.833Zm-81.888-2.413h80.681V109.58h-80.681Z"/></g></svg>