<svg xmlns="http://www.w3.org/2000/svg" width="62" height="62" viewBox="0 0 62 62"><defs><style>.a{fill:#f0f0f0;}.b{fill:#609be8;}.c{fill:#ffda44;}</style></defs><g transform="translate(0.333 0.241)"><circle class="a" cx="31" cy="31" r="31" transform="translate(-0.333 -0.241)"/><g transform="translate(3.085)"><path class="b" d="M53.045,0A30.69,30.69,0,0,0,25.4,17.346H80.688A30.69,30.69,0,0,0,53.045,0Z" transform="translate(-25.402)"/><path class="b" d="M53.045,384.65A30.69,30.69,0,0,0,80.688,367.3H25.4A30.69,30.69,0,0,0,53.045,384.65Z" transform="translate(-25.402 -323.273)"/></g><path class="c" d="M197.83,191.938l-3.748,1.763,2,3.63-4.07-.779-.516,4.111-2.835-3.024-2.835,3.024-.516-4.111-4.07.778,2-3.63-3.748-1.763,3.748-1.763-2-3.63,4.07.778.516-4.111,2.835,3.024,2.835-3.024.516,4.111,4.07-.778-2,3.63Z" transform="translate(-157.929 -161.25)"/></g></svg>