<svg xmlns="http://www.w3.org/2000/svg" width="64.267" height="56.781" viewBox="0 0 64.267 56.781"><defs><style>.a{fill:#28c3f3;}</style></defs><g transform="translate(2.5 -27.61)"><path class="a" d="M227.383,188.641H197.8a1.243,1.243,0,1,0,0,2.486h29.585a1.243,1.243,0,0,0,0-2.486Z" transform="translate(-174.311 -141.014)"/><path class="a" d="M82.206,90.243A1.244,1.244,0,0,0,80.963,89H55.8a1.243,1.243,0,1,0,0,2.486H80.963A1.244,1.244,0,0,0,82.206,90.243Z" transform="translate(-49.963 -53.759)"/><path class="a" d="M61.857,150.2a7.942,7.942,0,0,1,.3-1.794l.122-.4H55.8a1.243,1.243,0,0,0,0,2.486h6.04Z" transform="translate(-49.963 -105.425)"/><path class="a" d="M54.555,208.243a1.244,1.244,0,0,0,1.243,1.243h5.9V207H55.8A1.244,1.244,0,0,0,54.555,208.243Z" transform="translate(-49.963 -157.091)"/><path class="a" d="M227.383,245.974H197.8a1.243,1.243,0,0,0,0,2.486h29.585a1.243,1.243,0,0,0,0-2.486Z" transform="translate(-174.311 -191.22)"/><path class="a" d="M227.383,303.307H197.8a1.243,1.243,0,1,0,0,2.486h29.585a1.243,1.243,0,1,0,0-2.486Z" transform="translate(-174.311 -241.426)"/><path class="a" d="M177.851,123.049H142.343a5.74,5.74,0,0,0-5.733,5.733V151.11a5.74,5.74,0,0,0,5.733,5.733h24.888a.55.55,0,0,1,.435.211l8.037,10.175a1.913,1.913,0,0,0,1.507.738,1.956,1.956,0,0,0,.644-.11,1.91,1.91,0,0,0,1.3-1.826v-9.338a5.738,5.738,0,0,0,4.432-5.582V128.782A5.74,5.74,0,0,0,177.851,123.049Zm3.247,5.733V151.11a3.258,3.258,0,0,1-3.2,3.246,1.248,1.248,0,0,0-1.227,1.243v8.839l-7.05-8.925a3.022,3.022,0,0,0-2.386-1.156H142.343a3.251,3.251,0,0,1-3.247-3.247V128.782a3.251,3.251,0,0,1,3.247-3.247h35.508A3.251,3.251,0,0,1,181.1,128.782Z" transform="translate(-121.818 -83.575)"/><path class="a" d="M12.424,55.129a1.236,1.236,0,0,0-.922-.237,2.8,2.8,0,0,0-1.808,1.039l-5.85,7.406V56.106a1.248,1.248,0,0,0-1.227-1.243A2.675,2.675,0,0,1-.014,52.2V32.762A2.669,2.669,0,0,1,2.652,30.1h30.91a2.669,2.669,0,0,1,2.666,2.666v3.6a1.243,1.243,0,0,0,2.486,0v-3.6a5.158,5.158,0,0,0-5.152-5.152H2.652A5.158,5.158,0,0,0-2.5,32.762V52.2a5.178,5.178,0,0,0,3.858,4.985v8A1.822,1.822,0,0,0,2.6,66.929a1.864,1.864,0,0,0,.615.1,1.825,1.825,0,0,0,1.437-.7l7-8.858a.318.318,0,0,1,.206-.119,1.243,1.243,0,0,0,.572-2.225Z"/></g></svg>